<?xml version="1.0" encoding="UTF-8"?>
<svg id="Layer_2" data-name="Layer 2" xmlns="http://www.w3.org/2000/svg" viewBox="0 0 570.34 10.52">
  <defs>
    <style>
      .cls-1 {
        fill: #ff73aa;
      }
    </style>
  </defs>
  <g id="Layer_1-2" data-name="Layer 1">
    <g>
      <path class="cls-1" d="M4.07,3.67c-1.2,0-2.09.49-2.77,1.59h-.03c.07-2.62.8-4.16,2.7-4.16,1.13,0,1.75.77,1.85,1.47h1.31c-.18-1.23-1.17-2.58-3.19-2.58C2.65,0,1.67.51,1.01,1.42c-.67.92-1.01,2.23-1.01,3.79,0,2.03.37,3.4,1.42,4.36.61.58,1.42.95,2.55.95,1.92,0,3.46-1.55,3.44-3.46-.01-1.86-1.5-3.39-3.35-3.39ZM3.94,9.44c-1.36,0-2.42-.96-2.42-2.35s.96-2.34,2.38-2.34c1.28,0,2.27.96,2.27,2.35s-.96,2.34-2.23,2.34Z"/>
      <path class="cls-1" d="M17.66,4.69c-1.36,0-2.39,1.12-2.39,2.9s.96,2.92,2.39,2.92,2.38-1.15,2.38-2.92-1-2.9-2.38-2.9ZM17.66,9.59c-.81,0-1.23-.86-1.23-2s.42-2,1.23-2,1.23.88,1.23,2-.4,2-1.23,2Z"/>
      <path class="cls-1" d="M13.25,2.9c0-1.8-1.01-2.9-2.39-2.9s-2.39,1.13-2.39,2.9.99,2.93,2.39,2.93,2.39-1.15,2.39-2.93ZM10.86,4.9c-.8,0-1.23-.86-1.23-2s.43-2,1.23-2,1.24.89,1.24,2-.41,2-1.24,2Z"/>
      <polygon class="cls-1" points="16.61 .24 10.87 10.29 11.89 10.29 17.63 .24 16.61 .24"/>
      <path class="cls-1" d="M27.82.24l-3.67,10.05h1.42l1.03-2.93h3.96l1,2.93h1.51L29.36.24h-1.54ZM26.97,6.28l.99-2.81c.32-.93.62-2.13.62-2.13h.04s.27,1.16.61,2.13l.96,2.81h-3.21Z"/>
      <polygon class="cls-1" points="35.6 .24 34.22 .24 34.22 10.29 40.8 10.29 40.8 9.03 35.6 9.03 35.6 .24"/>
      <path class="cls-1" d="M45.96,9.29c-2.03,0-3.35-1.62-3.35-4.02s1.2-4.04,3.34-4.04c1.54,0,2.5.82,2.73,2.05h1.38c-.13-.96-.57-1.78-1.28-2.36-.68-.55-1.62-.89-2.8-.89-2.98,0-4.77,2.28-4.77,5.24s1.86,5.23,4.73,5.23c1.3,0,2.32-.36,3.02-1.07.72-.69,1.19-1.8,1.2-2.79h-1.38c-.12,1.43-1,2.66-2.82,2.66Z"/>
      <path class="cls-1" d="M108.47,4.92v-.04c.99-.32,1.67-.97,1.67-2.11,0-1.74-1.5-2.77-3.38-2.77-2.24,0-3.59,1.34-3.61,3.24h1.3c.01-1.28.84-2.19,2.27-2.19,1.16,0,2.11.63,2.11,1.7s-.77,1.67-2.28,1.67h-.62v1.04h.63c1.62,0,2.55.66,2.55,1.89,0,1.38-.96,2.05-2.29,2.05-1.63,0-2.63-.89-2.69-2.38h-1.3c.01,1.11.46,1.99,1.19,2.58.72.59,1.7.9,2.84.9,2.05,0,3.63-1.09,3.63-3.05,0-1.3-.62-2.19-2.03-2.55Z"/>
      <path class="cls-1" d="M111.2,1.42h3.94c1.05,0,1.84-.05,1.84-.05v.03c-2.28,1.85-4.13,5.38-4.35,8.9h1.42c.2-3.96,2.19-7.17,4.23-8.98V.24h-7.08v1.17Z"/>
      <path class="cls-1" d="M122.66,3.51c-1.03,0-1.77.32-2.34.91h-.03l.66-3h4.4V.24h-5.35l-1.09,5.35h1.27c.39-.5,1.11-.95,2.23-.95,1.2,0,2.17.86,2.17,2.32s-.89,2.38-2.28,2.38-2.09-.72-2.31-1.76h-1.32c.13,1.63,1.54,2.92,3.65,2.92s3.65-1.35,3.65-3.5-1.62-3.5-3.31-3.5Z"/>
      <path class="cls-1" d="M133.39,5.7c-.41,1.11-1.03,3.15-1.03,3.15h-.03s-.61-2.05-1.01-3.15l-2.09-5.46h-1.78v10.05h1.24v-6.08c0-.89-.08-2.58-.08-2.58h.03s.42,1.51.7,2.3l2.44,6.36h1.08l2.44-6.36c.3-.78.7-2.3.7-2.3h.03s-.08,1.69-.08,2.58v6.08h1.32V.24h-1.84l-2.05,5.46Z"/>
      <polygon class="cls-1" points="140.59 .24 139.21 .24 139.21 10.29 145.79 10.29 145.79 9.03 140.59 9.03 140.59 .24"/>
      <path class="cls-1" d="M206.37,8.02c-.09-1.45-.42-2.12-1.55-2.46v-.04c1.34-.42,1.84-1.28,1.84-2.51,0-1.66-1.22-2.77-3.01-2.77h-4.7v10.05h1.38v-4.19h2.67c1.31,0,1.9.51,2,1.93.11,1.61.13,2.07.36,2.25h1.47v-.07c-.2-.13-.34-.62-.46-2.2ZM203.2,5h-2.88V1.43h2.94c1.42,0,1.97.61,1.97,1.78,0,1.09-.67,1.78-2.04,1.78Z"/>
      <path class="cls-1" d="M211.15.24l-3.67,10.05h1.42l1.03-2.93h3.96l1,2.93h1.51l-3.7-10.05h-1.54ZM210.3,6.28l.99-2.81c.32-.93.62-2.13.62-2.13h.04s.27,1.16.61,2.13l.96,2.81h-3.21Z"/>
      <rect class="cls-1" x="217.58" y=".24" width="1.38" height="10.05"/>
      <path class="cls-1" d="M227.55,6.39c0,.84.09,2.15.09,2.15h-.04s-.63-1.26-1.12-2l-4.12-6.29h-1.44v10.05h1.3v-6.16c0-.81-.08-2.12-.08-2.12h.03s.66,1.23,1.15,1.99l4.11,6.29h1.43V.24h-1.3v6.14Z"/>
      <path class="cls-1" d="M236.49,4.98v-.04c1.08-.31,1.7-1.01,1.7-2.11,0-.73-.26-1.31-.68-1.74-.57-.57-1.36-.85-2.4-.85h-4.32v10.05h4.52c1.08,0,1.95-.34,2.51-.93.49-.49.77-1.16.77-1.96,0-1.32-.88-2.13-2.11-2.42ZM232.17,1.43h2.92c1.08,0,1.72.55,1.72,1.5,0,1.01-.7,1.59-1.88,1.59h-2.75V1.43ZM236.75,8.58c-.32.32-.82.5-1.51.5h-3.07v-3.43h2.99c1.19,0,2.04.59,2.04,1.8,0,.47-.16.86-.45,1.13Z"/>
      <path class="cls-1" d="M244.59.03c-3.04,0-4.92,2.23-4.92,5.24s1.88,5.24,4.92,5.24,4.93-2.24,4.93-5.24S247.62.03,244.59.03ZM244.59,9.29c-2.28,0-3.51-1.73-3.51-4.02s1.23-4.05,3.51-4.05,3.5,1.74,3.5,4.05-1.22,4.02-3.5,4.02Z"/>
      <path class="cls-1" d="M259.48,6.16c-.24.99-.5,2.66-.5,2.66h-.03s-.27-1.69-.53-2.67l-1.57-5.9h-1.46l-1.62,5.9c-.26.99-.53,2.67-.53,2.67h-.03s-.23-1.67-.47-2.66l-1.45-5.92h-1.44l2.62,10.05h1.38l1.77-6.44c.23-.88.49-2.5.49-2.5h.03s.24,1.62.47,2.51l1.65,6.43h1.34l2.79-10.05h-1.42l-1.5,5.92Z"/>
      <path class="cls-1" d="M270.73,4.39c-1.51-.31-2.61-.62-2.61-1.71,0-1,.86-1.54,2.19-1.54,1.42,0,2.3.66,2.47,1.88h1.34c-.24-1.72-1.35-2.96-3.82-2.96-2.07,0-3.48,1-3.48,2.69,0,1.93,1.53,2.44,3.32,2.82,1.76.39,2.92.7,2.92,2.01,0,1.21-.97,1.81-2.31,1.81-1.82,0-2.82-.84-2.98-2.35h-1.36c.11,1.92,1.5,3.46,4.31,3.46,2.17,0,3.74-1.07,3.74-2.97,0-2.24-1.77-2.74-3.71-3.13Z"/>
      <polygon class="cls-1" points="282.51 4.47 277.33 4.47 277.33 .24 275.95 .24 275.95 10.29 277.33 10.29 277.33 5.59 282.51 5.59 282.51 10.29 283.9 10.29 283.9 .24 282.51 .24 282.51 4.47"/>
      <polygon class="cls-1" points="287.22 5.64 292.43 5.64 292.43 4.5 287.22 4.5 287.22 1.46 292.99 1.46 292.99 .24 285.84 .24 285.84 10.29 293.14 10.29 293.14 9.03 287.22 9.03 287.22 5.64"/>
      <path class="cls-1" d="M302.13,8.02c-.09-1.45-.42-2.12-1.55-2.46v-.04c1.34-.42,1.84-1.28,1.84-2.51,0-1.66-1.22-2.77-3.01-2.77h-4.7v10.05h1.38v-4.19h2.67c1.31,0,1.9.51,2,1.93.11,1.61.13,2.07.36,2.25h1.47v-.07c-.2-.13-.34-.62-.46-2.2ZM298.95,5h-2.88V1.43h2.94c1.42,0,1.97.61,1.97,1.78,0,1.09-.67,1.78-2.04,1.78Z"/>
      <path class="cls-1" d="M309.71,4.98v-.04c1.08-.31,1.7-1.01,1.7-2.11,0-.73-.26-1.31-.67-1.74-.57-.57-1.36-.85-2.4-.85h-4.32v10.05h4.52c1.08,0,1.94-.34,2.51-.93.49-.49.77-1.16.77-1.96,0-1.32-.88-2.13-2.11-2.42ZM305.39,1.43h2.92c1.08,0,1.71.55,1.71,1.5,0,1.01-.7,1.59-1.88,1.59h-2.75V1.43ZM309.97,8.58c-.32.32-.82.5-1.51.5h-3.07v-3.43h2.98c1.19,0,2.04.59,2.04,1.8,0,.47-.16.86-.45,1.13Z"/>
      <polygon class="cls-1" points="314.59 5.64 319.8 5.64 319.8 4.5 314.59 4.5 314.59 1.46 320.35 1.46 320.35 .24 313.21 .24 313.21 10.29 320.5 10.29 320.5 9.03 314.59 9.03 314.59 5.64"/>
      <polygon class="cls-1" points="321.44 1.46 324.74 1.46 324.74 10.29 326.13 10.29 326.13 1.46 329.44 1.46 329.44 .24 321.44 .24 321.44 1.46"/>
      <polygon class="cls-1" points="379.5 .24 378.13 .24 378.13 10.29 384.7 10.29 384.7 9.03 379.5 9.03 379.5 .24"/>
      <rect class="cls-1" x="386.05" y=".24" width="1.38" height="10.05"/>
      <path class="cls-1" d="M393.84,6.14h2.92v.22c-.01,1.59-.96,2.94-2.96,2.94s-3.38-1.61-3.38-4,1.07-4.08,3.42-4.08c1.54,0,2.39.8,2.69,1.93h1.43c-.38-1.85-1.74-3.12-4.11-3.12-1.55,0-2.74.55-3.55,1.47-.84.95-1.28,2.28-1.28,3.79s.47,2.82,1.31,3.74c.82.92,2,1.46,3.4,1.46,1.31,0,2.39-.54,3.11-1.63h.04l.37,1.42h.88v-5.32h-4.28v1.17Z"/>
      <polygon class="cls-1" points="406.37 4.47 401.19 4.47 401.19 .24 399.81 .24 399.81 10.29 401.19 10.29 401.19 5.59 406.37 5.59 406.37 10.29 407.76 10.29 407.76 .24 406.37 .24 406.37 4.47"/>
      <polygon class="cls-1" points="409.08 1.46 412.38 1.46 412.38 10.29 413.77 10.29 413.77 1.46 417.08 1.46 417.08 .24 409.08 .24 409.08 1.46"/>
      <path class="cls-1" d="M422.76,4.73c-.25,0-.46.09-.63.26-.17.17-.26.38-.26.63s.09.46.26.63c.17.17.38.26.63.26s.46-.09.63-.26c.17-.17.26-.38.26-.63s-.09-.46-.26-.63c-.17-.17-.38-.26-.63-.26Z"/>
      <path class="cls-1" d="M432.78,4.39c-1.51-.31-2.61-.62-2.61-1.71,0-1,.86-1.54,2.19-1.54,1.42,0,2.3.66,2.47,1.88h1.34c-.24-1.72-1.35-2.96-3.82-2.96-2.07,0-3.48,1-3.48,2.69,0,1.93,1.53,2.44,3.32,2.82,1.76.39,2.92.7,2.92,2.01,0,1.21-.97,1.81-2.31,1.81-1.82,0-2.82-.84-2.98-2.35h-1.36c.11,1.92,1.5,3.46,4.31,3.46,2.17,0,3.74-1.07,3.74-2.97,0-2.24-1.77-2.74-3.71-3.13Z"/>
      <path class="cls-1" d="M446.62,6.16c-.24.99-.5,2.66-.5,2.66h-.03s-.27-1.69-.53-2.67l-1.57-5.9h-1.46l-1.62,5.9c-.26.99-.53,2.67-.53,2.67h-.03s-.23-1.67-.47-2.66l-1.44-5.92h-1.45l2.62,10.05h1.38l1.77-6.44c.23-.88.49-2.5.49-2.5h.03s.24,1.62.47,2.51l1.65,6.43h1.34l2.8-10.05h-1.42l-1.5,5.92Z"/>
      <polygon class="cls-1" points="452.07 5.64 457.28 5.64 457.28 4.5 452.07 4.5 452.07 1.46 457.83 1.46 457.83 .24 450.69 .24 450.69 10.29 457.98 10.29 457.98 9.03 452.07 9.03 452.07 5.64"/>
      <polygon class="cls-1" points="460.92 5.64 466.14 5.64 466.14 4.5 460.92 4.5 460.92 1.46 466.69 1.46 466.69 .24 459.55 .24 459.55 10.29 466.84 10.29 466.84 9.03 460.92 9.03 460.92 5.64"/>
      <polygon class="cls-1" points="467.78 1.46 471.07 1.46 471.07 10.29 472.47 10.29 472.47 1.46 475.78 1.46 475.78 .24 467.78 .24 467.78 1.46"/>
      <path class="cls-1" d="M481.46,4.73c-.25,0-.46.09-.63.26-.17.17-.26.38-.26.63s.09.46.26.63c.17.17.38.26.63.26s.46-.09.63-.26c.17-.17.26-.38.26-.63s-.09-.46-.26-.63c-.17-.17-.38-.26-.63-.26Z"/>
      <path class="cls-1" d="M491.48,4.39c-1.51-.31-2.61-.62-2.61-1.71,0-1,.86-1.54,2.19-1.54,1.42,0,2.3.66,2.47,1.88h1.34c-.24-1.72-1.35-2.96-3.82-2.96-2.07,0-3.48,1-3.48,2.69,0,1.93,1.53,2.44,3.32,2.82,1.76.39,2.92.7,2.92,2.01,0,1.21-.97,1.81-2.31,1.81-1.82,0-2.82-.84-2.98-2.35h-1.36c.11,1.92,1.5,3.46,4.31,3.46,2.17,0,3.74-1.07,3.74-2.97,0-2.24-1.77-2.74-3.71-3.13Z"/>
      <path class="cls-1" d="M501.24.03c-3.04,0-4.92,2.23-4.92,5.24s1.88,5.24,4.92,5.24,4.93-2.24,4.93-5.24S504.26.03,501.24.03ZM501.24,9.29c-2.28,0-3.51-1.73-3.51-4.02s1.23-4.05,3.51-4.05,3.5,1.74,3.5,4.05-1.21,4.02-3.5,4.02Z"/>
      <polygon class="cls-1" points="507.71 10.29 509.09 10.29 509.09 5.64 513.67 5.64 513.67 4.47 509.09 4.47 509.09 1.46 514.59 1.46 514.59 .24 507.71 .24 507.71 10.29"/>
      <polygon class="cls-1" points="515.36 1.46 518.65 1.46 518.65 10.29 520.04 10.29 520.04 1.46 523.35 1.46 523.35 .24 515.36 .24 515.36 1.46"/>
      <path class="cls-1" d="M529.03,4.73c-.25,0-.46.09-.63.26s-.26.38-.26.63.09.46.26.63.38.26.63.26.46-.09.63-.26c.17-.17.26-.38.26-.63s-.09-.46-.26-.63c-.17-.17-.38-.26-.63-.26Z"/>
      <path class="cls-1" d="M539.05,4.39c-1.51-.31-2.61-.62-2.61-1.71,0-1,.86-1.54,2.19-1.54,1.42,0,2.3.66,2.47,1.88h1.34c-.24-1.72-1.35-2.96-3.82-2.96-2.07,0-3.48,1-3.48,2.69,0,1.93,1.53,2.44,3.32,2.82,1.76.39,2.92.7,2.92,2.01,0,1.21-.97,1.81-2.31,1.81-1.82,0-2.82-.84-2.98-2.35h-1.36c.11,1.92,1.5,3.46,4.31,3.46,2.17,0,3.74-1.07,3.74-2.97,0-2.24-1.77-2.74-3.71-3.13Z"/>
      <polygon class="cls-1" points="543.18 1.46 546.48 1.46 546.48 10.29 547.87 10.29 547.87 1.46 551.17 1.46 551.17 .24 543.18 .24 543.18 1.46"/>
      <rect class="cls-1" x="552.52" y=".24" width="1.38" height="10.05"/>
      <polygon class="cls-1" points="557.25 .24 555.87 .24 555.87 10.29 562.45 10.29 562.45 9.03 557.25 9.03 557.25 .24"/>
      <polygon class="cls-1" points="565.14 9.03 565.14 .24 563.77 .24 563.77 10.29 570.34 10.29 570.34 9.03 565.14 9.03"/>
    </g>
  </g>
</svg>