<?xml version="1.0" encoding="UTF-8"?>
<svg id="Layer_2" data-name="Layer 2" xmlns="http://www.w3.org/2000/svg" viewBox="0 0 56.69 48.87">
  <defs>
    <style>
      .cls-1 {
        fill: #ff73aa;
      }
    </style>
  </defs>
  <g id="Layer_1-2" data-name="Layer 1">
    <g>
      <path class="cls-1" d="M39.1,38.81c0-2.48-1.41-4-5.03-4.51l-.48,3.45c.69.17,2.03.72,2.03,2.1,0,1.55-1.58,2.27-2.69,2.58l-.24,1.96,2.86,4.48,1.62-.31-1.96-4.89c1.76-.55,3.89-2.34,3.89-4.86Z"/>
      <path class="cls-1" d="M24.63,39.57c0,1.38-1.41,1.93-2.65,1.96l.17,1.72c1.76-.03,2.93.83,3,2,.07,1.38-1.07,2.27-3.41,2.1l.03,1.52h.86c3.38,0,5.72-1.93,5.72-4.24-.03-1.58-1.1-2.58-2.89-2.93,0,0,2.34-.96,2.34-3.24,0-2.76-2.34-4.1-5.24-4.1-.34,0-.72,0-1.1.03l.07,3.2c1.65-.14,3.1.41,3.1,1.96Z"/>
      <polygon class="cls-1" points="31.52 48.87 33.14 34.16 29.45 34.05 29.66 48.66 31.52 48.87"/>
      <polygon class="cls-1" points="19.29 48.7 21.15 48.83 20.5 34.47 16.74 34.98 19.29 48.7"/>
      <path class="cls-1" d="M1.32,4.25c0-.95-.09-2.75-.09-2.75h.03s.45,1.61.75,2.45l2.61,6.78h1.15l2.61-6.78c.32-.84.75-2.45.75-2.45h.03s-.09,1.8-.09,2.75v6.48h1.41V.01h-1.96l-2.19,5.82c-.43,1.18-1.09,3.36-1.09,3.36h-.03s-.65-2.19-1.08-3.36L1.9.01H0v10.72h1.32v-6.48Z"/>
      <path class="cls-1" d="M14.32,7.6h4.22l1.07,3.13h1.61L17.27.01h-1.64l-3.92,10.72h1.51l1.09-3.13ZM15.77,3.46c.35-.99.66-2.28.66-2.28h.04s.29,1.24.65,2.28l1.02,3h-3.43l1.05-3Z"/>
      <path class="cls-1" d="M23.93,6.86l1.63-1.6,3.96,5.47h1.71l-4.65-6.42L30.88,0h-1.84l-5.17,5.3c.03-.52.06-1.25.06-1.97V.01h-1.47v10.72h1.47v-3.87Z"/>
      <path class="cls-1" d="M36.08,10.89c2.35,0,4.13-1.07,4.13-3.64V.01h-1.47v7.1c0,1.76-.98,2.52-2.64,2.52s-2.69-.76-2.69-2.52V.01h-1.47v7.23c0,2.58,1.73,3.64,4.13,3.64Z"/>
      <polygon class="cls-1" points="49.13 9.39 43.59 9.39 43.59 .01 42.12 .01 42.12 10.73 49.13 10.73 49.13 9.39"/>
      <path class="cls-1" d="M51.32,10.73h1.47v-4.42L56.69.01h-1.57l-1.94,3.23c-.45.76-1.07,2-1.07,2h-.03s-.6-1.24-1.05-2L49.1.01h-1.64l3.86,6.22v4.49Z"/>
      <polygon class="cls-1" points="23.36 28.41 27.92 23.85 32.48 28.41 32.84 28.04 28.28 23.48 32.84 18.92 32.48 18.56 27.92 23.12 23.36 18.56 23 18.92 27.56 23.48 23 28.04 23.36 28.41"/>
    </g>
  </g>
</svg>